# xmcd CD database file
#
# Track frame offsets:
#	150
#	23006
#	38702
#	53977
#	74283
#	95139
#	118443
#	138498
#	161147
#	178423
#	202661
#
# Disc length: 2930 seconds
#
# Revision: 3
# Processed by: cddbd v1.5.2PL0 Copyright (c) Steve Scherf et al.
# Submitted via: CDex 1.70beta3
#
DISCID=a20b700b
DTITLE=Joe Lynn Turner - The Usual Suspects
DYEAR=2005
DGENRE=Melodic Hard Rock
TTITLE0=Power Of Love
TTITLE1=Devil's Door
TTITLE2=Jacknife
TTITLE3=Really Loved
TTITLE4=Rest Of My Life
TTITLE5=Into The Fire
TTITLE6=Blood Money
TTITLE7=All Alone
TTITLE8=Ball And Chain
TTITLE9=Live And Love Again
TTITLE10=What Can I Do (Bonus Track)
EXTD=YEAR: 2005
EXTT0=
EXTT1=
EXTT2=
EXTT3=
EXTT4=
EXTT5=
EXTT6=
EXTT7=
EXTT8=
EXTT9=
EXTT10=
PLAYORDER=
